<svg width="32" height="29" viewBox="0 0 24 22" fill="none" xmlns="http://www.w3.org/2000/svg"><path d="M13.9211 16.0769H15.8701C16.1485 16.0769 16.3155 15.8513 16.3155 15.6256V6.43077C16.3155 6.14872 16.0928 5.97949 15.8701 5.97949H13.9211C13.6427 5.97949 13.4756 6.20513 13.4756 6.43077V15.6256C13.4756 15.8513 13.6984 16.0769 13.9211 16.0769ZM3.34107 5.07692V10.4359V11.5641V12.1282H4.45476L3.34107 13.7641L2.22738 15.4L1.11369 13.7641L0 12.1282H1.16937V11.5641V10.4359V5.07692C1.16937 2.31282 3.39675 0 6.18097 0H17.9304C20.6589 0 22.942 2.25641 22.942 5.07692H20.7703C20.7703 3.49744 19.4896 2.25641 17.9861 2.25641H6.12529C4.62181 2.2 3.34107 3.49744 3.34107 5.07692ZM21.7726 6.6L22.8863 8.2359L24 9.8718H22.8863V10.4359V10.9436V16.9231C22.8863 19.6872 20.6589 22 17.8747 22H6.12529C3.39675 22 1.11369 19.7436 1.11369 16.9231H3.34107C3.34107 18.5026 4.62181 19.7436 6.12529 19.7436H17.8747C19.4339 19.7436 20.6589 18.4462 20.6589 16.9231V11V10.4923V9.92821H19.5452L20.6589 8.29231L21.7726 6.6ZM8.12993 16.0769H10.0789C10.3573 16.0769 10.5244 15.8513 10.5244 15.6256V9.75897C10.5244 9.47692 10.3016 9.30769 10.0789 9.30769H8.12993C7.85151 9.30769 7.68446 9.53333 7.68446 9.75897V15.5692C7.68446 15.8513 7.90719 16.0769 8.12993 16.0769Z" fill="url(#logo_gradient_1)"></path><defs><linearGradient id="logo_gradient_1" x1="-2.01166e-07" y1="22" x2="27.1617" y2="16.9264" gradientUnits="userSpaceOnUse"><stop stop-color="#E84D8C"></stop><stop offset="1" stop-color="#F8D98A"></stop></linearGradient></defs></svg>